<?xml version="1.0" encoding="UTF-8"?>
<svg version="1.1" xmlns="http://www.w3.org/2000/svg" width="1080" height="1080">
<path d="M0 0 C356.4 0 712.8 0 1080 0 C1080 356.4 1080 712.8 1080 1080 C723.6 1080 367.2 1080 0 1080 C0 723.6 0 367.2 0 0 Z " fill="#000000" transform="translate(0,0)"/>
<path d="M0 0 C6.75855155 -0.07667264 13.51698908 -0.12885867 20.27587891 -0.16479492 C22.5705179 -0.17979151 24.86512867 -0.20019551 27.15966797 -0.22631836 C30.47630825 -0.2631058 33.79256642 -0.2798182 37.109375 -0.29296875 C38.11925476 -0.30845261 39.12913452 -0.32393646 40.1696167 -0.33988953 C49.44400521 -0.34203368 59.7704727 0.67416362 67 7 C71.73045345 13.26465457 72.79027894 18.30869371 72 26 C70.26964221 32.27872684 67.52530102 36.38730318 62 40 C55.44510748 43.12012884 48.97245108 44.13352699 41.7265625 44.09765625 C40.57285156 44.09443359 39.41914062 44.09121094 38.23046875 44.08789062 C37.04066406 44.07951172 35.85085938 44.07113281 34.625 44.0625 C33.41199219 44.05798828 32.19898438 44.05347656 30.94921875 44.04882812 C27.96609493 44.03708354 24.98307321 44.0206584 22 44 C22.11806197 49.66014162 22.24229672 55.32010083 22.37231445 60.97998047 C22.41569001 62.90637504 22.45736314 64.83280871 22.49731445 66.75927734 C22.55495362 69.52453408 22.61866616 72.2895935 22.68359375 75.0546875 C22.70030624 75.9193161 22.71701874 76.7839447 22.73423767 77.67477417 C22.72159896 81.97395852 22.72159896 81.97395852 24 86 C27.02934491 86.65772428 27.02934491 86.65772428 30 87 C30 87.66 30 88.32 30 89 C20.1 89 10.2 89 0 89 C0 88.34 0 87.68 0 87 C3.465 86.01 3.465 86.01 7 85 C7 58.27 7 31.54 7 4 C4.69 3.01 2.38 2.02 0 1 C0 0.67 0 0.34 0 0 Z " fill="#C0AB93" transform="translate(598,353)"/>
<path d="M0 0 C9.9 0 19.8 0 30 0 C30 0.33 30 0.66 30 1 C27.36 1.66 24.72 2.32 22 3 C22 17.19 22 31.38 22 46 C31.23229818 36.1267742 31.23229818 36.1267742 40.1875 26.0625 C43.06858616 22.78402265 46.03788137 19.58554249 49.00634766 16.38623047 C55.55533665 10.03781766 55.55533665 10.03781766 59 2 C56.36 1.67 53.72 1.34 51 1 C51 0.67 51 0.34 51 0 C58.59 0 66.18 0 74 0 C74 0.33 74 0.66 74 1 C73.443125 1.06316406 72.88625 1.12632812 72.3125 1.19140625 C61.74546704 2.88712944 56.33038307 10.5910578 49.79394531 18.36962891 C45.45204102 23.53264223 40.91147763 28.48053122 36.27661133 33.38110352 C33.67013462 36.1481167 31.1958757 38.88474382 29 42 C30.51058382 46.22963468 33.12314321 47.91246173 37 50 C40.62974171 50.36297417 43.51184278 49.92069386 47 49 C47.34144043 49.50225098 47.68288086 50.00450195 48.03466797 50.52197266 C52.00656466 56.35939671 55.99725588 62.18368922 60 68 C60.50047852 68.72912598 61.00095703 69.45825195 61.51660156 70.20947266 C62.83594756 72.12487538 64.16571148 74.03248736 65.5 75.9375 C66.2528125 77.01902344 67.005625 78.10054688 67.78125 79.21484375 C70.88410296 83.10979826 73.40379118 85.63859423 78.3125 86.75 C79.199375 86.8325 80.08625 86.915 81 87 C81 87.66 81 88.32 81 89 C77.95736733 89.10845027 74.91863796 89.18752063 71.875 89.25 C71.0190625 89.28351563 70.163125 89.31703125 69.28125 89.3515625 C63.60154326 89.4389426 60.41127849 88.89722707 56 85 C49.94872569 78.92033076 45.11565842 72.12082302 40.375 65 C39.7459375 64.06671875 39.116875 63.1334375 38.46875 62.171875 C36.63833958 59.4528421 34.81746471 56.72769909 33 54 C32.40735352 53.11183594 31.81470703 52.22367187 31.20410156 51.30859375 C29.80178809 49.20635725 28.40039532 47.10351453 27 45 C24.37597902 46.48975017 24.37597902 46.48975017 22 49 C21.52681992 51.78492014 21.3654695 53.94815583 21.44140625 56.72265625 C21.44373764 57.46454697 21.44606903 58.20643768 21.44847107 58.97080994 C21.45819278 60.53510072 21.47994424 62.0993571 21.51293945 63.66333008 C21.56240671 66.05798412 21.57442404 68.45058394 21.58007812 70.84570312 C21.5941629 72.36720936 21.61036688 73.88869777 21.62890625 75.41015625 C21.6369503 76.48367088 21.6369503 76.48367088 21.64515686 77.57887268 C21.73305954 81.24932851 21.9101345 82.86520174 24 86 C27.06556598 86.73343428 27.06556598 86.73343428 30 87 C30 87.66 30 88.32 30 89 C19.77 89 9.54 89 -1 89 C-1 88.34 -1 87.68 -1 87 C1.64 86.67 4.28 86.34 7 86 C7 58.94 7 31.88 7 4 C4.69 3.01 2.38 2.02 0 1 C0 0.67 0 0.34 0 0 Z " fill="#C6B198" transform="translate(512,353)"/>
<path d="M0 0 C9.9 0 19.8 0 30 0 C30 0.33 30 0.66 30 1 C29.030625 1.309375 28.06125 1.61875 27.0625 1.9375 C24.15934208 2.69523342 24.15934208 2.69523342 23 4 C22.8850118 5.90483407 22.8403307 7.81394506 22.82299805 9.72216797 C22.81016281 10.9478952 22.79732758 12.17362244 22.78410339 13.43649292 C22.77592963 14.78838699 22.76848713 16.14028566 22.76171875 17.4921875 C22.75764322 18.1725922 22.7535677 18.8529969 22.74936867 19.55401993 C22.72846724 23.16524199 22.71419135 26.77642576 22.70483398 30.38769531 C22.69384677 34.09401524 22.65955015 37.79972183 22.61966228 41.50582695 C22.59330703 44.37316888 22.5851249 47.24037007 22.58155251 50.10782242 C22.57439469 52.12998305 22.54802099 54.1520468 22.52116394 56.17404175 C22.54254715 65.36337486 23.48654195 73.67574393 29.4375 81 C35.10101008 85.42030055 38.73810405 86.50175958 45.8125 86.4375 C46.58142578 86.45748047 47.35035156 86.47746094 48.14257812 86.49804688 C55.30461303 86.49200296 60.42565919 84.23109537 65.8125 79.5625 C72.04805745 71.18536559 71.41607703 58.50677752 71.29296875 48.60546875 C71.28872391 47.29210037 71.28447906 45.97873199 71.28010559 44.62556458 C71.26880515 41.18140626 71.23947158 37.7376447 71.20599365 34.29364014 C71.17496772 30.76026777 71.16153176 27.22682951 71.14648438 23.69335938 C71.11458273 16.79541283 71.06357284 9.89772561 71 3 C68.36 2.34 65.72 1.68 63 1 C63 0.67 63 0.34 63 0 C69.27 0 75.54 0 82 0 C82 0.66 82 1.32 82 2 C80.865625 2.28875 79.73125 2.5775 78.5625 2.875 C76.7990625 3.431875 76.7990625 3.431875 75 4 C73.65807111 6.68385778 73.86053217 8.77035224 73.84228516 11.77563477 C73.82689194 13.59376427 73.82689194 13.59376427 73.81118774 15.44862366 C73.80388641 16.76624191 73.79658508 18.08386017 73.7890625 19.44140625 C73.77609498 20.80705064 73.76227847 22.17268721 73.74765015 23.53831482 C73.68612592 29.33935425 73.6321943 35.14037659 73.59863281 40.94165039 C73.57754842 44.4908637 73.54212755 48.03970078 73.49787521 51.58869743 C73.47701803 53.58529992 73.47168827 55.5820454 73.46670532 57.57875061 C73.3439378 66.72455756 72.33758977 74.96394924 66.66015625 82.4296875 C58.26505751 90.37046325 47.7473771 90.35817046 36.9765625 90.203125 C27.68655087 89.92004029 21.69289772 87.75727643 14.9140625 81.25390625 C9.38717327 74.7457122 7.91560072 67.17644958 7.79467773 58.83276367 C7.77473251 57.61187546 7.75478729 56.39098724 7.73423767 55.13310242 C7.71752518 53.82460831 7.70081268 52.5161142 7.68359375 51.16796875 C7.6630042 49.80747372 7.64200722 48.44698481 7.62062073 47.08650208 C7.56560653 43.51751677 7.51610683 39.94847573 7.46777344 36.37939453 C7.41740694 32.73269734 7.3618002 29.08608041 7.30664062 25.43945312 C7.19931196 18.29303849 7.09781157 11.14655175 7 4 C4.69 3.01 2.38 2.02 0 1 C0 0.67 0 0.34 0 0 Z " fill="#C1AC94" transform="translate(427,353)"/>
<path d="M0 0 C24.30337079 0 24.30337079 0 30.6328125 5.390625 C35.99534259 11.21280052 36.39977775 17.53542869 36.25 25.08984375 C35.80742598 30.24168201 34.42767184 33.49074691 30.8125 37.3125 C21.31745748 43.00952551 10.78690453 41 0 41 C0 27.47 0 13.94 0 0 Z " fill="#010101" transform="translate(620,354)"/>
<path d="M0 0 C4.23301121 2.82200747 7.17159664 5.95228992 8.8125 10.875 C9.23441678 17.30923087 8.75760655 21.46697697 4.37109375 26.54296875 C0.60897809 30.21779635 -2.70097842 31.85754241 -7.98046875 32.109375 C-12.98768562 31.57763516 -16.17621446 28.96612388 -19.5625 25.3125 C-22.96095548 20.21481678 -22.78230162 14.80602185 -22.1875 8.875 C-20.13518323 4.35990311 -17.46024213 1.79108216 -13.11328125 -0.43359375 C-8.55947121 -2.06853163 -4.55732376 -1.60846721 0 0 Z " fill="#030302" transform="translate(554.1875,520.125)"/>
<path d="M0 0 C4.25493819 2.0906298 6.4680238 4.84829889 8.3359375 9.171875 C9.85572236 14.30114889 9.59892098 18.69425167 7.8046875 23.69921875 C5.1096319 27.69533567 1.5723529 30.77018978 -3.0078125 32.38671875 C-7.152045 32.84718903 -9.41046844 32.69733766 -13.1328125 30.76171875 C-17.08854188 27.4939423 -20.35020846 24.35953087 -22.0078125 19.38671875 C-22.5467359 12.91963793 -21.78185593 9.69077978 -18.0078125 4.38671875 C-12.48223951 -0.61260919 -7.316413 -2.23477985 0 0 Z " fill="#050404" transform="translate(757.0078125,519.61328125)"/>
<path d="M0 0 C4.25493819 2.0906298 6.4680238 4.84829889 8.3359375 9.171875 C9.85572236 14.30114889 9.59892098 18.69425167 7.8046875 23.69921875 C5.1096319 27.69533567 1.5723529 30.77018978 -3.0078125 32.38671875 C-7.152045 32.84718903 -9.41046844 32.69733766 -13.1328125 30.76171875 C-17.08854188 27.4939423 -20.35020846 24.35953087 -22.0078125 19.38671875 C-22.5467359 12.91963793 -21.78185593 9.69077978 -18.0078125 4.38671875 C-12.48223951 -0.61260919 -7.316413 -2.23477985 0 0 Z " fill="#050404" transform="translate(400.0078125,519.61328125)"/>
<path d="M0 0 C3.87878091 1.35377059 6.56913449 3.55808665 9.4375 6.5 C11.74580705 11.6706078 11.75788897 16.42683665 11 22 C8.87224295 26.41312574 6.20824975 29.47505015 2 32 C-2.59591943 33.3415584 -6.50497931 33.6538174 -10.8125 31.375 C-14.43717532 28.67426153 -16.97628305 26.0474339 -19 22 C-19.50502343 16.46957948 -19.73807257 11.58969476 -17.375 6.5 C-12.04978636 0.89451196 -7.65969973 -1.30775361 0 0 Z " fill="#040403" transform="translate(677,519)"/>
<path d="M0 0 C3.87878091 1.35377059 6.56913449 3.55808665 9.4375 6.5 C11.74580705 11.6706078 11.75788897 16.42683665 11 22 C8.87224295 26.41312574 6.20824975 29.47505015 2 32 C-2.59591943 33.3415584 -6.50497931 33.6538174 -10.8125 31.375 C-14.43717532 28.67426153 -16.97628305 26.0474339 -19 22 C-19.50502343 16.46957948 -19.73807257 11.58969476 -17.375 6.5 C-12.04978636 0.89451196 -7.65969973 -1.30775361 0 0 Z " fill="#040403" transform="translate(252,519)"/>
<path d="M0 0 C7.59 0 15.18 0 23 0 C23 0.33 23 0.66 23 1 C22.443125 1.06316406 21.88625 1.12632812 21.3125 1.19140625 C10.74546704 2.88712944 5.33038307 10.5910578 -1.20605469 18.36962891 C-5.54795898 23.53264223 -10.08852237 28.48053122 -14.72338867 33.38110352 C-17.32986538 36.1481167 -19.8041243 38.88474382 -22 42 C-20.48941618 46.22963468 -17.87685679 47.91246173 -14 50 C-10.37025829 50.36297417 -7.48815722 49.92069386 -4 49 C-3.65855957 49.50225098 -3.31711914 50.00450195 -2.96533203 50.52197266 C1.00656466 56.35939671 4.99725588 62.18368922 9 68 C9.50047852 68.72912598 10.00095703 69.45825195 10.51660156 70.20947266 C11.83594756 72.12487538 13.16571148 74.03248736 14.5 75.9375 C15.2528125 77.01902344 16.005625 78.10054688 16.78125 79.21484375 C19.88410296 83.10979826 22.40379118 85.63859423 27.3125 86.75 C28.199375 86.8325 29.08625 86.915 30 87 C30 87.66 30 88.32 30 89 C26.95736733 89.10845027 23.91863796 89.18752063 20.875 89.25 C20.0190625 89.28351563 19.163125 89.31703125 18.28125 89.3515625 C12.60154326 89.4389426 9.41127849 88.89722707 5 85 C-1.05127431 78.92033076 -5.88434158 72.12082302 -10.625 65 C-11.2540625 64.06671875 -11.883125 63.1334375 -12.53125 62.171875 C-14.36166042 59.4528421 -16.18253529 56.72769909 -18 54 C-18.59264648 53.11183594 -19.18529297 52.22367187 -19.79589844 51.30859375 C-21.19821191 49.20635725 -22.59960468 47.10351453 -24 45 C-25.65 45.66 -27.3 46.32 -29 47 C-25.5831159 42.18131729 -22.00966309 37.87252195 -17.76953125 33.76171875 C-15.38582567 31.38853726 -13.21804615 28.85573004 -11.0234375 26.30859375 C-8.07547387 22.94518351 -5.03715965 19.66626229 -1.99511719 16.38793945 C4.554679 10.03870211 4.554679 10.03870211 8 2 C5.36 1.67 2.72 1.34 0 1 C0 0.67 0 0.34 0 0 Z " fill="#C1AD94" transform="translate(563,353)"/>
<path d="M0 0 C2.70894767 -0.08144943 5.41541263 -0.14070614 8.125 -0.1875 C8.88554688 -0.21263672 9.64609375 -0.23777344 10.4296875 -0.26367188 C15.39444307 -0.3278713 18.67806571 0.28729656 23 3 C25 5 25 5 25.3125 7.8125 C24.96840628 11.32225593 24.01272399 13.14864101 22 16 C22.825 16.53625 23.65 17.0725 24.5 17.625 C27 20 27 20 27.625 22.9375 C26.80638747 26.94870142 25.10031586 28.41640345 22 31 C19.59940183 32.20029908 18.10639351 32.11459743 15.4296875 32.09765625 C14.53378906 32.09443359 13.63789062 32.09121094 12.71484375 32.08789062 C11.30912109 32.07532227 11.30912109 32.07532227 9.875 32.0625 C8.93011719 32.05798828 7.98523438 32.05347656 7.01171875 32.04882812 C4.67441613 32.03702357 2.33723939 32.02055759 0 32 C0.66 31.34 1.32 30.68 2 30 C2.37268887 27.08811755 2.37268887 27.08811755 2.4140625 23.6796875 C2.45273437 22.42285156 2.49140625 21.16601562 2.53125 19.87109375 C2.5621875 18.55238281 2.593125 17.23367188 2.625 15.875 C2.66318029 14.53513082 2.70223206 13.19528617 2.7421875 11.85546875 C2.8367203 8.57045381 2.92227156 5.28544862 3 2 C2.01 1.67 1.02 1.34 0 1 C0 0.67 0 0.34 0 0 Z " fill="#C5B097" transform="translate(858,519)"/>
<path d="M0 0 C2.87557703 -0.08138426 5.74882262 -0.14067851 8.625 -0.1875 C9.43324219 -0.21263672 10.24148438 -0.23777344 11.07421875 -0.26367188 C16.16649308 -0.32577278 19.57662316 0.18945441 24 3 C26 5 26 5 26.375 7.875 C26 11 26 11 24.625 13.25 C20.75148887 15.83234075 16.61347239 16.62293735 12 17 C10.68 16.67 9.36 16.34 8 16 C8 20.95 8 25.9 8 31 C8.99 31.33 9.98 31.66 11 32 C7.37 32 3.74 32 0 32 C0.99 31.67 1.98 31.34 3 31 C2.90652699 26.90618601 2.80044844 22.81291391 2.68261719 18.71972656 C2.64430673 17.32691428 2.60945741 15.93400235 2.578125 14.54101562 C2.53252093 12.54013692 2.47348377 10.53957854 2.4140625 8.5390625 C2.3826416 7.33459473 2.3512207 6.13012695 2.31884766 4.88916016 C2.29084774 1.8739982 2.29084774 1.8739982 0 0 Z " fill="#BBA790" transform="translate(566,519)"/>
<path d="M0 0 C2.87557703 -0.08138426 5.74882262 -0.14067851 8.625 -0.1875 C9.43324219 -0.21263672 10.24148438 -0.23777344 11.07421875 -0.26367188 C16.16649308 -0.32577278 19.57662316 0.18945441 24 3 C26 5 26 5 26.375 7.875 C25.92056457 11.66196193 24.93500208 12.66926305 22 15 C19.23547967 16.38226016 16.9538637 16.09525387 13.875 16.0625 C10.966875 16.0315625 10.966875 16.0315625 8 16 C8 20.95 8 25.9 8 31 C8.99 31.33 9.98 31.66 11 32 C7.37 32 3.74 32 0 32 C0.99 31.67 1.98 31.34 3 31 C2.90652699 26.90618601 2.80044844 22.81291391 2.68261719 18.71972656 C2.64430673 17.32691428 2.60945741 15.93400235 2.578125 14.54101562 C2.53252093 12.54013692 2.47348377 10.53957854 2.4140625 8.5390625 C2.3826416 7.33459473 2.3512207 6.13012695 2.31884766 4.88916016 C2.29084774 1.8739982 2.29084774 1.8739982 0 0 Z " fill="#BBA790" transform="translate(502,519)"/>
<path d="M0 0 C4.25493819 2.0906298 6.4680238 4.84829889 8.3359375 9.171875 C9.85572236 14.30114889 9.59892098 18.69425167 7.8046875 23.69921875 C5.85171185 26.59501024 3.83866808 28.38648915 0.9921875 30.38671875 C0.3321875 30.05671875 -0.3278125 29.72671875 -1.0078125 29.38671875 C-0.5334375 28.78859375 -0.0590625 28.19046875 0.4296875 27.57421875 C4.22708832 22.25785761 3.43014355 15.6410385 2.9921875 9.38671875 C1.47424413 5.12202071 0.74315069 3.88736087 -3.0078125 1.38671875 C-8.0909124 0.82145227 -8.0909124 0.82145227 -12.3828125 3.26171875 C-15.32930325 7.11482204 -15.20091351 9.80030502 -15.2578125 14.63671875 C-15.28359375 15.94125 -15.309375 17.24578125 -15.3359375 18.58984375 C-14.8765129 23.90604273 -13.0855109 27.89154869 -9.0078125 31.38671875 C-13.28510337 30.89999255 -15.02839766 29.80875526 -17.7578125 26.51171875 C-18.35078125 25.81304688 -18.94375 25.114375 -19.5546875 24.39453125 C-22.42378242 20.43024419 -22.63386315 16.11687919 -22.0078125 11.38671875 C-18.37553726 1.59536811 -9.9498462 -3.03915536 0 0 Z " fill="#B4A18A" transform="translate(757.0078125,519.61328125)"/>
<path d="M0 0 C4.25493819 2.0906298 6.4680238 4.84829889 8.3359375 9.171875 C9.85572236 14.30114889 9.59892098 18.69425167 7.8046875 23.69921875 C5.85171185 26.59501024 3.83866808 28.38648915 0.9921875 30.38671875 C0.3321875 30.05671875 -0.3278125 29.72671875 -1.0078125 29.38671875 C-0.5334375 28.78859375 -0.0590625 28.19046875 0.4296875 27.57421875 C4.22708832 22.25785761 3.43014355 15.6410385 2.9921875 9.38671875 C1.47424413 5.12202071 0.74315069 3.88736087 -3.0078125 1.38671875 C-8.0909124 0.82145227 -8.0909124 0.82145227 -12.3828125 3.26171875 C-15.32930325 7.11482204 -15.20091351 9.80030502 -15.2578125 14.63671875 C-15.28359375 15.94125 -15.309375 17.24578125 -15.3359375 18.58984375 C-14.8765129 23.90604273 -13.0855109 27.89154869 -9.0078125 31.38671875 C-13.28510337 30.89999255 -15.02839766 29.80875526 -17.7578125 26.51171875 C-18.35078125 25.81304688 -18.94375 25.114375 -19.5546875 24.39453125 C-22.42378242 20.43024419 -22.63386315 16.11687919 -22.0078125 11.38671875 C-18.37553726 1.59536811 -9.9498462 -3.03915536 0 0 Z " fill="#B4A18A" transform="translate(400.0078125,519.61328125)"/>
<path d="M0 0 C3.87878091 1.35377059 6.56913449 3.55808665 9.4375 6.5 C11.74580705 11.6706078 11.75788897 16.42683665 11 22 C8.87095504 26.41579696 6.13470735 29.34954657 2 32 C1.01 31.67 0.02 31.34 -1 31 C-0.195625 30.236875 0.60875 29.47375 1.4375 28.6875 C6.02091116 23.8805078 5.32574203 18.75115698 5.29296875 12.40625 C4.91168527 7.97319412 4.05963475 6.14962401 1 3 C-2.04983996 1.47508002 -4.6423369 1.76437452 -8 2 C-10.62682187 3.81160129 -11.78595907 6.08730097 -13 9 C-13.94073445 17.1712632 -13.1301186 23.86448259 -9 31 C-13.42741644 29.64717831 -15.36309221 27.76701112 -18 24 C-20.09305576 19.81388848 -19.42364608 14.55867052 -19 10 C-15.20898679 1.83474078 -8.70460507 -1.48615209 0 0 Z " fill="#B8A48D" transform="translate(677,519)"/>
<path d="M0 0 C3.87878091 1.35377059 6.56913449 3.55808665 9.4375 6.5 C11.74580705 11.6706078 11.75788897 16.42683665 11 22 C8.87095504 26.41579696 6.13470735 29.34954657 2 32 C1.01 31.67 0.02 31.34 -1 31 C-0.195625 30.236875 0.60875 29.47375 1.4375 28.6875 C6.02091116 23.8805078 5.32574203 18.75115698 5.29296875 12.40625 C4.91168527 7.97319412 4.05963475 6.14962401 1 3 C-2.04983996 1.47508002 -4.6423369 1.76437452 -8 2 C-10.62682187 3.81160129 -11.78595907 6.08730097 -13 9 C-13.94073445 17.1712632 -13.1301186 23.86448259 -9 31 C-13.42741644 29.64717831 -15.36309221 27.76701112 -18 24 C-20.09305576 19.81388848 -19.42364608 14.55867052 -19 10 C-15.20898679 1.83474078 -8.70460507 -1.48615209 0 0 Z " fill="#B8A48D" transform="translate(252,519)"/>
<path d="M0 0 C7.26 0 14.52 0 22 0 C22.66 1.32 23.32 2.64 24 4 C23.67 4.99 23.34 5.98 23 7 C22.731875 6.360625 22.46375 5.72125 22.1875 5.0625 C21.11332248 2.66868314 21.11332248 2.66868314 18 2 C16.43881572 1.93259135 14.8749748 1.91485544 13.3125 1.9375 C11.889375 1.958125 10.46625 1.97875 9 2 C8.67 6.29 8.34 10.58 8 15 C11.465 14.505 11.465 14.505 15 14 C15.66 12.35 16.32 10.7 17 9 C17.33 9 17.66 9 18 9 C18 13.62 18 18.24 18 23 C17.67 23 17.34 23 17 23 C16.67 21.02 16.34 19.04 16 17 C13.36 16.67 10.72 16.34 8 16 C8 20.95 8 25.9 8 31 C15.01355809 30.88355595 15.01355809 30.88355595 21 27.75 C22.86235304 25.18926458 24.05410431 23.0096681 25 20 C26 23 26 23 23 32 C15.41 32 7.82 32 0 32 C0.66 31.34 1.32 30.68 2 30 C2.31198539 27.11912077 2.31198539 27.11912077 2.265625 23.75 C2.26820313 22.5021875 2.27078125 21.254375 2.2734375 19.96875 C2.26570312 18.6590625 2.25796875 17.349375 2.25 16 C2.25773438 14.6903125 2.26546875 13.380625 2.2734375 12.03125 C2.27085937 10.7834375 2.26828125 9.535625 2.265625 8.25 C2.26336914 7.10015625 2.26111328 5.9503125 2.25878906 4.765625 C2.28343676 1.85800168 2.28343676 1.85800168 0 0 Z " fill="#C5B097" transform="translate(829,519)"/>
<path d="M0 0 C7.59 0 15.18 0 23 0 C23.33 1.98 23.66 3.96 24 6 C23.401875 5.34 22.80375 4.68 22.1875 4 C17.41567703 1.005915 13.57336239 1.73140422 8 2 C8 6.29 8 10.58 8 15 C13.1693489 14.59443869 13.1693489 14.59443869 18 13 C18 14.65 18 16.3 18 18 C14.7 17.34 11.4 16.68 8 16 C8 20.95 8 25.9 8 31 C14.76333283 30.74360726 14.76333283 30.74360726 20.9375 28.375 C23.53063268 25.38896843 24.64553159 22.70696617 26 19 C27 21 27 21 24 32 C16.08 32 8.16 32 0 32 C0.99 31.67 1.98 31.34 3 31 C2.90652699 26.90618601 2.80044844 22.81291391 2.68261719 18.71972656 C2.64430673 17.32691428 2.60945741 15.93400235 2.578125 14.54101562 C2.53252093 12.54013692 2.47348377 10.53957854 2.4140625 8.5390625 C2.3826416 7.33459473 2.3512207 6.13012695 2.31884766 4.88916016 C2.29084774 1.8739982 2.29084774 1.8739982 0 0 Z " fill="#BDA991" transform="translate(304,519)"/>
<path d="M0 0 C9.24 0 18.48 0 28 0 C28.33 2.64 28.66 5.28 29 8 C28.505 7.21625 28.01 6.4325 27.5 5.625 C24.63828739 2.15129955 24.63828739 2.15129955 17 1 C17 10.9 17 20.8 17 31 C17.66 31.33 18.32 31.66 19 32 C15.7 32 12.4 32 9 32 C9.66 31.67 10.32 31.34 11 31 C11 21.1 11 11.2 11 1 C3.14095377 1.99238485 3.14095377 1.99238485 1 6.125 C0.67 7.07375 0.34 8.0225 0 9 C-0.33 9 -0.66 9 -1 9 C-0.67 6.03 -0.34 3.06 0 0 Z " fill="#C4AF97" transform="translate(346,519)"/>
<path d="M0 0 C3 1 3 1 5 2 C5.33 1.34 5.66 0.68 6 0 C6 3.63 6 7.26 6 11 C4 8 4 8 2.8125 5.375 C1.10697444 2.62275895 1.10697444 2.62275895 -2.625 2.125 C-3.73875 2.08375 -4.8525 2.0425 -6 2 C-7.34294244 3.12719884 -7.34294244 3.12719884 -7.25 6.0625 C-6.80613221 9.18244024 -5.9777819 10.01938325 -3.55078125 12.13671875 C-1.5816807 13.52924607 0.41323288 14.88607098 2.43359375 16.203125 C5 18 5 18 7 21 C7.67092652 27.15015974 7.67092652 27.15015974 5.125 30.375 C1.15731653 33.40911089 -1.17472565 32.96752245 -6.125 32.5625 C-7.40632812 32.46066406 -8.68765625 32.35882812 -10.0078125 32.25390625 C-10.99523437 32.17011719 -11.98265625 32.08632813 -13 32 C-13 27.71 -13 23.42 -13 19 C-12.67 19 -12.34 19 -12 19 C-11.731875 20.258125 -11.46375 21.51625 -11.1875 22.8125 C-10.58977141 25.10989219 -10.04174069 26.92579432 -8.875 29 C-5.65658568 30.71648764 -2.59705114 30.23206782 1 30 C2.24945507 28.95562339 2.24945507 28.95562339 2.2890625 26.65625 C2.24206863 23.94393549 2.24206863 23.94393549 0.4609375 22.15625 C-0.22742188 21.6096875 -0.91578125 21.063125 -1.625 20.5 C-2.35074219 19.90832031 -3.07648437 19.31664062 -3.82421875 18.70703125 C-4.54222656 18.14371094 -5.26023437 17.58039062 -6 17 C-12.80837827 11.46909996 -12.80837827 11.46909996 -13.375 7.125 C-13 4 -13 4 -11 1.625 C-7.14991914 -0.46046047 -4.2871367 -0.60503945 0 0 Z " fill="#BCA991" transform="translate(902,519)"/>
<path d="M0 0 C7.26 0 14.52 0 22 0 C22.33 1.32 22.66 2.64 23 4 C22.17242188 3.50886719 22.17242188 3.50886719 21.328125 3.0078125 C18.61219077 1.83212285 16.69448241 1.79751362 13.75 1.875 C12.1825 1.91625 10.615 1.9575 9 2 C8.67 6.29 8.34 10.58 8 15 C10.64 14.67 13.28 14.34 16 14 C16.33 12.35 16.66 10.7 17 9 C17.33 9 17.66 9 18 9 C18 12.3 18 15.6 18 19 C17.34 18.34 16.68 17.68 16 17 C13.34462628 16.43479997 10.70855287 16.26211802 8 16 C8 20.95 8 25.9 8 31 C15.01355809 30.88355595 15.01355809 30.88355595 21 27.75 C22.86235304 25.18926458 24.05410431 23.0096681 25 20 C26 24 26 24 24 32 C16.08 32 8.16 32 0 32 C0.99 31.67 1.98 31.34 3 31 C2.90652699 26.90618601 2.80044844 22.81291391 2.68261719 18.71972656 C2.64430673 17.32691428 2.60945741 15.93400235 2.578125 14.54101562 C2.53252093 12.54013692 2.47348377 10.53957854 2.4140625 8.5390625 C2.3826416 7.33459473 2.3512207 6.13012695 2.31884766 4.88916016 C2.29084774 1.8739982 2.29084774 1.8739982 0 0 Z " fill="#B9A68E" transform="translate(958,519)"/>
<path d="M0 0 C7.26 0 14.52 0 22 0 C22.33 1.32 22.66 2.64 23 4 C22.17242187 3.50886719 22.17242187 3.50886719 21.328125 3.0078125 C18.61219077 1.83212285 16.69448241 1.79751362 13.75 1.875 C12.1825 1.91625 10.615 1.9575 9 2 C8.67 6.29 8.34 10.58 8 15 C10.64 14.67 13.28 14.34 16 14 C16.33 12.35 16.66 10.7 17 9 C17.33 9 17.66 9 18 9 C18 12.3 18 15.6 18 19 C17.34 18.34 16.68 17.68 16 17 C13.34462628 16.43479997 10.70855287 16.26211802 8 16 C8 20.95 8 25.9 8 31 C15.01355809 30.88355595 15.01355809 30.88355595 21 27.75 C22.86235304 25.18926458 24.05410431 23.0096681 25 20 C26 24 26 24 24 32 C16.08 32 8.16 32 0 32 C0.99 31.67 1.98 31.34 3 31 C2.90652699 26.90618601 2.80044844 22.81291391 2.68261719 18.71972656 C2.64430673 17.32691428 2.60945741 15.93400235 2.578125 14.54101562 C2.53252093 12.54013692 2.47348377 10.53957854 2.4140625 8.5390625 C2.3826416 7.33459473 2.3512207 6.13012695 2.31884766 4.88916016 C2.29084774 1.8739982 2.29084774 1.8739982 0 0 Z " fill="#B9A68E" transform="translate(143,519)"/>
<path d="M0 0 C4.47915328 -0.02886338 8.95828291 -0.04675187 13.4375 -0.0625 C14.71689453 -0.07087891 15.99628906 -0.07925781 17.31445312 -0.08789062 C19.13686523 -0.09272461 19.13686523 -0.09272461 20.99609375 -0.09765625 C22.12200928 -0.10289307 23.2479248 -0.10812988 24.40795898 -0.11352539 C27 0 27 0 28 1 C28.04063832 2.66617115 28.042721 4.33388095 28 6 C27.01 5.01 26.02 4.02 25 3 C22.03 2.34 19.06 1.68 16 1 C16 10.9 16 20.8 16 31 C16.99 31.33 17.98 31.66 19 32 C15.37 32 11.74 32 8 32 C8.99 31.67 9.98 31.34 11 31 C11 21.1 11 11.2 11 1 C2.23723496 1.85292115 2.23723496 1.85292115 -0.0625 6.125 C-0.371875 7.07375 -0.68125 8.0225 -1 9 C-2.25541557 5.23375329 -1.37061958 3.62811066 0 0 Z " fill="#BDA991" transform="translate(927,519)"/>
<path d="M0 0 C4.47915328 -0.02886338 8.95828291 -0.04675187 13.4375 -0.0625 C14.71689453 -0.07087891 15.99628906 -0.07925781 17.31445312 -0.08789062 C19.13686523 -0.09272461 19.13686523 -0.09272461 20.99609375 -0.09765625 C22.12200928 -0.10289307 23.2479248 -0.10812988 24.40795898 -0.11352539 C27 0 27 0 28 1 C28.04063832 2.66617115 28.042721 4.33388095 28 6 C27.01 5.01 26.02 4.02 25 3 C22.03 2.34 19.06 1.68 16 1 C16 10.9 16 20.8 16 31 C16.99 31.33 17.98 31.66 19 32 C15.37 32 11.74 32 8 32 C8.99 31.67 9.98 31.34 11 31 C11 21.1 11 11.2 11 1 C2.23723496 1.85292115 2.23723496 1.85292115 -0.0625 6.125 C-0.371875 7.07375 -0.68125 8.0225 -1 9 C-2.25541557 5.23375329 -1.37061958 3.62811066 0 0 Z " fill="#BDA991" transform="translate(600,519)"/>
<path d="M0 0 C0 3.3 0 6.6 0 10 C-0.33 10 -0.66 10 -1 10 C-1.2475 8.88625 -1.495 7.7725 -1.75 6.625 C-2.64501771 3.06883633 -2.64501771 3.06883633 -4.6875 1.5 C-8.14056778 0.75339075 -10.59203154 1.08715131 -14 2 C-16.68944108 3.71095979 -16.68944108 3.71095979 -18 7 C-18.85516279 13.85102008 -18.62789261 20.03989072 -15 26 C-12.49777385 28.05540005 -10.76197962 28.02550218 -7.5 28.375 C-3.98722877 28.30253143 -3.98722877 28.30253143 -1.6875 26.25 C-0.16283421 24.21711228 1.00106153 22.33085643 2 20 C1.77871438 23.83561748 1.5068672 26.31835101 -0.8125 29.4375 C-5.79195312 31.87840839 -10.56648685 31.86024498 -16 31 C-19.96610944 29.08140404 -22.40066063 26.06974751 -24 22 C-24.64649966 16.1815031 -24.82525782 10.80921907 -22.375 5.4375 C-15.5042467 -1.6140626 -9.32150181 -2.40554885 0 0 Z " fill="#B6A38C" transform="translate(226,520)"/>
<path d="M0 0 C3.63 0 7.26 0 11 0 C10.34 0.66 9.68 1.32 9 2 C8.62703444 5.00972657 8.62703444 5.00972657 8.5859375 8.5390625 C8.54726563 9.84101562 8.50859375 11.14296875 8.46875 12.484375 C8.43729237 13.86457862 8.40604509 15.24478704 8.375 16.625 C8.33682066 18.01304541 8.29776895 19.40106711 8.2578125 20.7890625 C8.16327057 24.19257185 8.07772103 27.59607165 8 31 C9.60613109 30.87545288 11.21147096 30.74067315 12.81640625 30.6015625 C13.71045166 30.52760254 14.60449707 30.45364258 15.52563477 30.37744141 C19.05864817 29.83851307 20.66914027 28.68402029 23 26 C24.21635061 23.69585617 25.10134821 21.45946805 26 19 C27 21 27 21 24 32 C16.08 32 8.16 32 0 32 C0.99 31.67 1.98 31.34 3 31 C2.90652699 26.90618601 2.80044844 22.81291391 2.68261719 18.71972656 C2.64430673 17.32691428 2.60945741 15.93400235 2.578125 14.54101562 C2.53252093 12.54013692 2.47348377 10.53957854 2.4140625 8.5390625 C2.3826416 7.33459473 2.3512207 6.13012695 2.31884766 4.88916016 C2.29084774 1.8739982 2.29084774 1.8739982 0 0 Z " fill="#BAA78F" transform="translate(692,519)"/>
<path d="M0 0 C3.3 0 6.6 0 10 0 C9.34 0.66 8.68 1.32 8 2 C7.72123233 4.91487922 7.72123233 4.91487922 7.8046875 8.3203125 C7.81113281 9.57714844 7.81757813 10.83398438 7.82421875 12.12890625 C7.84097656 13.44761719 7.85773438 14.76632812 7.875 16.125 C7.88503017 17.46483721 7.89415596 18.80468152 7.90234375 20.14453125 C7.92597925 23.42986573 7.95892766 26.71484465 8 30 C9.60372023 30.05923685 11.20807105 30.10157166 12.8125 30.13671875 C13.70582031 30.16209717 14.59914062 30.18747559 15.51953125 30.21362305 C18.28124789 30.19137583 18.28124789 30.19137583 21 27.8125 C22.8385721 25.22700798 24.05213353 23.01593878 25 20 C26 23 26 23 23 32 C15.41 32 7.82 32 0 32 C0.66 31.67 1.32 31.34 2 31 C1.8818344 26.90637894 1.75759216 22.81299233 1.62768555 18.71972656 C1.58434154 17.3268741 1.54266604 15.93396869 1.50268555 14.54101562 C1.44497068 12.54023349 1.38078131 10.53964141 1.31640625 8.5390625 C1.27974854 7.33459473 1.24309082 6.13012695 1.20532227 4.88916016 C1.18947013 2.06003633 1.18947013 2.06003633 0 0 Z " fill="#AF9D87" transform="translate(172,519)"/>
<path d="M0 0 C6.93 0 13.86 0 21 0 C21.33 1.65 21.66 3.3 22 5 C20.7625 4.2884375 20.7625 4.2884375 19.5 3.5625 C15.47204099 1.76430401 12.36826421 1.3765745 8 1 C8 5.62 8 10.24 8 15 C13.58500567 14.80101292 13.58500567 14.80101292 18 12 C18 13.98 18 15.96 18 18 C14.7 17.34 11.4 16.68 8 16 C8.33 21.28 8.66 26.56 9 32 C6.03 32 3.06 32 0 32 C0.99 31.67 1.98 31.34 3 31 C2.90652699 26.90618601 2.80044844 22.81291391 2.68261719 18.71972656 C2.64430673 17.32691428 2.60945741 15.93400235 2.578125 14.54101562 C2.53252093 12.54013692 2.47348377 10.53957854 2.4140625 8.5390625 C2.3826416 7.33459473 2.3512207 6.13012695 2.31884766 4.88916016 C2.29084774 1.8739982 2.29084774 1.8739982 0 0 Z " fill="#BEAA92" transform="translate(631,519)"/>
<path d="M0 0 C2.64 0 5.28 0 8 0 C10.97 7.26 13.94 14.52 17 22 C17.66 22 18.32 22 19 22 C18.39009109 25.55780196 17.4216319 28.6828589 16 32 C13.08756611 30.54378305 12.94403454 28.67586567 11.8359375 25.65234375 C11.43632812 24.57275391 11.03671875 23.49316406 10.625 22.38085938 C10.2125 21.24455078 9.8 20.10824219 9.375 18.9375 C8.95476562 17.79732422 8.53453125 16.65714844 8.1015625 15.48242188 C7.06134405 12.65728312 6.02985833 9.82893182 5 7 C4.67 14.92 4.34 22.84 4 31 C4.99 31.33 5.98 31.66 7 32 C4.69 32 2.38 32 0 32 C0.99 31.67 1.98 31.34 3 31 C2.90652699 26.90618601 2.80044844 22.81291391 2.68261719 18.71972656 C2.64430673 17.32691428 2.60945741 15.93400235 2.578125 14.54101562 C2.53252093 12.54013692 2.47348377 10.53957854 2.4140625 8.5390625 C2.3826416 7.33459473 2.3512207 6.13012695 2.31884766 4.88916016 C2.29084774 1.8739982 2.29084774 1.8739982 0 0 Z " fill="#AB9983" transform="translate(267,519)"/>
<path d="M0 0 C2.64 0 5.28 0 8 0 C9.48319125 3.74842066 10.96085099 7.4989978 12.4375 11.25 C13.06881836 12.84521484 13.06881836 12.84521484 13.71289062 14.47265625 C14.11572266 15.49746094 14.51855469 16.52226563 14.93359375 17.578125 C15.30540771 18.52075195 15.67722168 19.46337891 16.06030273 20.43457031 C18.22423664 26.34223919 18.22423664 26.34223919 17.0625 29.75 C16.5365625 30.86375 16.5365625 30.86375 16 32 C15.34 32 14.68 32 14 32 C11.03 24.08 8.06 16.16 5 8 C4.67 15.59 4.34 23.18 4 31 C4.99 31.33 5.98 31.66 7 32 C4.69 32 2.38 32 0 32 C0.99 31.67 1.98 31.34 3 31 C2.90652699 26.90618601 2.80044844 22.81291391 2.68261719 18.71972656 C2.64430673 17.32691428 2.60945741 15.93400235 2.578125 14.54101562 C2.53252093 12.54013692 2.47348377 10.53957854 2.4140625 8.5390625 C2.3826416 7.33459473 2.3512207 6.13012695 2.31884766 4.88916016 C2.29084774 1.8739982 2.29084774 1.8739982 0 0 Z " fill="#AB9984" transform="translate(425,519)"/>
<path d="M0 0 C6.27 0 12.54 0 19 0 C19 0.66 19 1.32 19 2 C17.865625 2.28875 16.73125 2.5775 15.5625 2.875 C14.386875 3.24625 13.21125 3.6175 12 4 C10.65807111 6.68385778 10.86053217 8.77035224 10.84228516 11.77563477 C10.82689194 13.59376427 10.82689194 13.59376427 10.81118774 15.44862366 C10.80388641 16.76624191 10.79658508 18.08386017 10.7890625 19.44140625 C10.77609498 20.80705064 10.76227847 22.17268721 10.74765015 23.53831482 C10.68612592 29.33935425 10.6321943 35.14037659 10.59863281 40.94165039 C10.57754842 44.4908637 10.54212755 48.03970078 10.49787521 51.58869743 C10.47701803 53.58529992 10.47168827 55.5820454 10.46670532 57.57875061 C10.34408237 66.71378754 9.34932901 74.98377971 3.65234375 82.4296875 C-0.89344062 86.74979464 -6.90582563 88.9770493 -13 90 C-13 89.67 -13 89.34 -13 89 C-16.3 88.67 -19.6 88.34 -23 88 C-23 87.67 -23 87.34 -23 87 C-21.515 86.96132813 -21.515 86.96132813 -20 86.921875 C-10.82465321 86.57451761 -4.27696024 85.70669888 2.8125 79.5625 C9.04805745 71.18536559 8.41607703 58.50677752 8.29296875 48.60546875 C8.28660149 46.63541618 8.28660149 46.63541618 8.28010559 44.62556458 C8.26880515 41.18140626 8.23947158 37.7376447 8.20599365 34.29364014 C8.17496772 30.76026777 8.16153176 27.22682951 8.14648438 23.69335938 C8.11458273 16.79541283 8.06357284 9.89772561 8 3 C5.36 2.34 2.72 1.68 0 1 C0 0.67 0 0.34 0 0 Z " fill="#C6B198" transform="translate(490,353)"/>
<path d="M0 0 C4.29 0 8.58 0 13 0 C11.515 1.485 11.515 1.485 10 3 C10.5053125 3.84820313 11.010625 4.69640625 11.53125 5.5703125 C16.50971065 14.39132834 17.98303564 20.73273887 17 31 C17.99 31.33 18.98 31.66 20 32 C16.37 32 12.74 32 9 32 C9.99 31.67 10.98 31.34 12 31 C12.22681527 22.7212427 10.83694849 16.62996119 7.125 9.3125 C6.77308594 8.61769531 6.42117188 7.92289063 6.05859375 7.20703125 C4.30754907 3.92626353 3.14183321 2.09455547 0 0 Z " fill="#B4A18A" transform="translate(461,519)"/>
<path d="M0 0 C8.03149606 -0.35433071 8.03149606 -0.35433071 11.5625 0.9375 C13.95472535 4.36982333 13.7124179 7.97296407 13 12 C11.5625 14.0625 11.5625 14.0625 9 15 C5.95226696 15.22031805 3.0657635 15.13525427 0 15 C0 10.05 0 5.1 0 0 Z " fill="#020101" transform="translate(866,535)"/>
<path d="M0 0 C3.96 0 7.92 0 12 0 C11.01 0.495 11.01 0.495 10 1 C13.00285445 8.82508541 16.43420048 16.41673302 20 24 C20.99 22.68 21.98 21.36 23 20 C22.45660208 24.56454251 21.20536179 27.9728176 19 32 C16.10692317 29.48752064 14.72446284 26.74479429 13.08203125 23.30859375 C12.55029297 22.19935547 12.01855469 21.09011719 11.47070312 19.94726562 C10.92349609 18.78904297 10.37628906 17.63082031 9.8125 16.4375 C9.25369141 15.27541016 8.69488281 14.11332031 8.11914062 12.91601562 C4 4.27034684 4 4.27034684 4 2 C2.68 1.34 1.36 0.68 0 0 Z " fill="#B19E88" transform="translate(780,519)"/>
<path d="M0 0 C3.96 0 7.92 0 12 0 C11.01 0.495 11.01 0.495 10 1 C13.00285445 8.82508541 16.43420048 16.41673302 20 24 C20.99 22.68 21.98 21.36 23 20 C22.45660208 24.56454251 21.20536179 27.9728176 19 32 C16.10692317 29.48752064 14.72446284 26.74479429 13.08203125 23.30859375 C12.55029297 22.19935547 12.01855469 21.09011719 11.47070312 19.94726562 C10.92349609 18.78904297 10.37628906 17.63082031 9.8125 16.4375 C9.25369141 15.27541016 8.69488281 14.11332031 8.11914062 12.91601562 C4 4.27034684 4 4.27034684 4 2 C2.68 1.34 1.36 0.68 0 0 Z " fill="#B19E88" transform="translate(94,519)"/>
<path d="M0 0 C2.64 0 5.28 0 8 0 C7.34 0.66 6.68 1.32 6 2 C5.68801461 4.88087923 5.68801461 4.88087923 5.734375 8.25 C5.73050781 10.12171875 5.73050781 10.12171875 5.7265625 12.03125 C5.73429687 13.3409375 5.74203125 14.650625 5.75 16 C5.74226563 17.3096875 5.73453125 18.619375 5.7265625 19.96875 C5.72914063 21.2165625 5.73171875 22.464375 5.734375 23.75 C5.73663086 24.89984375 5.73888672 26.0496875 5.74121094 27.234375 C5.71656324 30.14199832 5.71656324 30.14199832 8 32 C5.03 32 2.06 32 -1 32 C-0.99476318 31.2886792 -0.98952637 30.5773584 -0.98413086 29.84448242 C-0.96335982 26.62549725 -0.95033942 23.40652617 -0.9375 20.1875 C-0.92912109 19.06794922 -0.92074219 17.94839844 -0.91210938 16.79492188 C-0.90888672 15.72177734 -0.90566406 14.64863281 -0.90234375 13.54296875 C-0.89710693 12.55321045 -0.89187012 11.56345215 -0.88647461 10.54370117 C-0.88930041 7.87607266 -0.88930041 7.87607266 -2 5 C-1.0625 2.3125 -1.0625 2.3125 0 0 Z " fill="#AE9B86" transform="translate(451,519)"/>
<path d="M0 0 C3.63 0 7.26 0 11 0 C10.34 0.66 9.68 1.32 9 2 C8.62703444 5.00972657 8.62703444 5.00972657 8.5859375 8.5390625 C8.54726563 9.84101562 8.50859375 11.14296875 8.46875 12.484375 C8.43729237 13.86457862 8.40604509 15.24478704 8.375 16.625 C8.33682066 18.01304541 8.29776895 19.40106711 8.2578125 20.7890625 C8.16327057 24.19257185 8.07772103 27.59607165 8 31 C8.99 31.33 9.98 31.66 11 32 C7.37 32 3.74 32 0 32 C0.99 31.67 1.98 31.34 3 31 C2.90652699 26.90618601 2.80044844 22.81291391 2.68261719 18.71972656 C2.64430673 17.32691428 2.60945741 15.93400235 2.578125 14.54101562 C2.53252093 12.54013692 2.47348377 10.53957854 2.4140625 8.5390625 C2.3826416 7.33459473 2.3512207 6.13012695 2.31884766 4.88916016 C2.29084774 1.8739982 2.29084774 1.8739982 0 0 Z " fill="#B6A38C" transform="translate(912,519)"/>
<path d="M0 0 C3.63 0 7.26 0 11 0 C10.34 0.66 9.68 1.32 9 2 C8.62703444 5.00972657 8.62703444 5.00972657 8.5859375 8.5390625 C8.54726563 9.84101562 8.50859375 11.14296875 8.46875 12.484375 C8.43729237 13.86457862 8.40604509 15.24478704 8.375 16.625 C8.33682066 18.01304541 8.29776895 19.40106711 8.2578125 20.7890625 C8.16327057 24.19257185 8.07772103 27.59607165 8 31 C8.99 31.33 9.98 31.66 11 32 C7.37 32 3.74 32 0 32 C0.99 31.67 1.98 31.34 3 31 C2.90652699 26.90618601 2.80044844 22.81291391 2.68261719 18.71972656 C2.64430673 17.32691428 2.60945741 15.93400235 2.578125 14.54101562 C2.53252093 12.54013692 2.47348377 10.53957854 2.4140625 8.5390625 C2.3826416 7.33459473 2.3512207 6.13012695 2.31884766 4.88916016 C2.29084774 1.8739982 2.29084774 1.8739982 0 0 Z " fill="#B29F89" transform="translate(721,519)"/>
<path d="M0 0 C2.05078125 0.03255208 4.1015625 0.06510417 6.15234375 0.09765625 C5.49234375 0.75765625 4.83234375 1.41765625 4.15234375 2.09765625 C3.77937819 5.10738282 3.77937819 5.10738282 3.73828125 8.63671875 C3.69960938 9.93867187 3.6609375 11.240625 3.62109375 12.58203125 C3.58963612 13.96223487 3.55838884 15.34244329 3.52734375 16.72265625 C3.48916441 18.11070166 3.4501127 19.49872336 3.41015625 20.88671875 C3.31561432 24.2902281 3.23006478 27.6937279 3.15234375 31.09765625 C4.14234375 31.42765625 5.13234375 31.75765625 6.15234375 32.09765625 C2.52234375 32.09765625 -1.10765625 32.09765625 -4.84765625 32.09765625 C-3.85765625 31.76765625 -2.86765625 31.43765625 -1.84765625 31.09765625 C-1.88318604 30.194104 -1.91871582 29.29055176 -1.95532227 28.35961914 C-2.08427422 25.01827809 -2.20863112 21.67683266 -2.32983398 18.33520508 C-2.38331862 16.88689324 -2.43865284 15.4386485 -2.49584961 13.99047852 C-2.57758137 11.91307043 -2.65273393 9.83551455 -2.7265625 7.7578125 C-2.77369385 6.50621338 -2.8208252 5.25461426 -2.86938477 3.96508789 C-2.84047619 0.15013088 -2.84047619 0.15013088 0 0 Z " fill="#B29F89" transform="translate(295.84765625,518.90234375)"/>
<path d="M0 0 C1.65 0 3.3 0 5 0 C8.66666667 7.33333333 12.33333333 14.66666667 16 22 C16.66 21.01 17.32 20.02 18 19 C18.66 18.34 19.32 17.68 20 17 C19.36843005 22.05255964 17.86540627 26.29593201 16 31 C15.34 31 14.68 31 14 31 C8.45762992 20.91073407 3.47922621 11.01754968 0 0 Z " fill="#B7A48D" transform="translate(798,520)"/>
<path d="M0 0 C7.92 0 7.92 0 12 3 C13 4 13 4 13.25 7.375 C13 11 13 11 11.80859375 12.71484375 C9.37193991 14.44628892 7.76977715 14.30271859 4.8125 14.1875 C3.224375 14.125625 1.63625 14.06375 0 14 C0 9.38 0 4.76 0 0 Z " fill="#030302" transform="translate(510,520)"/>
<path d="M0 0 C1.65 0 3.3 0 5 0 C8.66666667 7.33333333 12.33333333 14.66666667 16 22 C16.66 21.01 17.32 20.02 18 19 C18.66 18.34 19.32 17.68 20 17 C19.36843005 22.05255964 17.86540627 26.29593201 16 31 C15.34 31 14.68 31 14 31 C8.45762992 20.91073407 3.47922621 11.01754968 0 0 Z " fill="#B7A48D" transform="translate(112,520)"/>
<path d="M0 0 C7.92 0 7.92 0 12 3 C13 4 13 4 13.3125 6.8125 C13 10 13 10 11.5625 12.375 C7.67632781 14.83940188 4.54866791 14.2675687 0 14 C0 9.38 0 4.76 0 0 Z " fill="#030302" transform="translate(574,520)"/>
<path d="M0 0 C1.99609375 0.015625 1.99609375 0.015625 4.4375 0.25 C5.64212891 0.35054687 5.64212891 0.35054687 6.87109375 0.453125 C9 1 9 1 11 4 C11.55592089 10.22631393 11.55592089 10.22631393 9.7734375 12.70703125 C7.47701597 14.38129452 6.12289819 14.30969123 3.3125 14.1875 C2.10013672 14.14689453 2.10013672 14.14689453 0.86328125 14.10546875 C0.24839844 14.07066406 -0.36648438 14.03585937 -1 14 C-1.02685938 11.85423363 -1.04633088 9.70837355 -1.0625 7.5625 C-1.07410156 6.36753906 -1.08570313 5.17257812 -1.09765625 3.94140625 C-1 1 -1 1 0 0 Z " fill="#020201" transform="translate(867,520)"/>
<path d="M0 0 C5.59588314 -0.28944223 9.18669255 -0.20887163 14 3 C17.97531446 6.93233809 19.87833433 10.14459849 20.25 15.8125 C20.15060805 20.7549905 18.80292527 24.10330556 15.34765625 27.73828125 C11.95581981 30.85762343 11.95581981 30.85762343 10 32 C9.01 31.67 8.02 31.34 7 31 C8.2065625 30.1028125 8.2065625 30.1028125 9.4375 29.1875 C12.22327984 27.19052724 12.22327984 27.19052724 13 24 C13.39074812 16.76661621 13.60176692 9.82963816 11 3 C7.37 2.34 3.74 1.68 0 1 C0 0.67 0 0.34 0 0 Z " fill="#AD9A85" transform="translate(543,519)"/>
<path d="M0 0 C0.99 0.33 1.98 0.66 3 1 C2.360625 1.78375 1.72125 2.5675 1.0625 3.375 C-3.17126716 8.76343093 -2.45344192 14.35221757 -2 21 C-0.47782249 25.33820591 1.59362187 27.94600581 5 31 C0.07395127 30.56534864 -2.51891224 28.40373025 -6 25 C-8.5788973 19.78101122 -8.68775865 14.71175168 -8 9 C-6.04664091 5.09328181 -3.87528772 2.12515778 0 0 Z " fill="#B7A48D" transform="translate(540,520)"/>
<path d="M0 0 C2.70894767 -0.08144943 5.41541263 -0.14070614 8.125 -0.1875 C8.88554688 -0.21263672 9.64609375 -0.23777344 10.4296875 -0.26367188 C15.39444307 -0.3278713 18.67806571 0.28729656 23 3 C25 5 25 5 25.3125 7.8125 C24.96197909 11.38781327 24.1405297 13.1459604 22 16 C21.01 16.66 20.02 17.32 19 18 C18.34 17.67 17.68 17.34 17 17 C15.46331135 16.77532169 13.92031946 16.59203195 12.375 16.4375 C10.93125 16.293125 9.4875 16.14875 8 16 C8 20.62 8 25.24 8 30 C7.67 30 7.34 30 7 30 C7 20.76 7 11.52 7 2 C5.02 2 3.04 2 1 2 C0.67 1.34 0.34 0.68 0 0 Z M9 1 C7.66098208 2.11126659 7.66098208 2.11126659 7.90234375 4.94140625 C7.91394531 6.13636719 7.92554688 7.33132813 7.9375 8.5625 C7.94652344 9.76003906 7.95554687 10.95757813 7.96484375 12.19140625 C7.97644531 13.11824219 7.98804688 14.04507813 8 15 C9.43655854 15.08131463 10.8744483 15.13933559 12.3125 15.1875 C13.11300781 15.22230469 13.91351562 15.25710938 14.73828125 15.29296875 C17.05561895 15.17693798 17.05561895 15.17693798 18.7734375 13.70703125 C20.78925124 10.90158347 20.29758265 8.33292572 20 5 C18.37882111 1.8447007 18.37882111 1.8447007 15.87109375 1.453125 C14.66646484 1.35257813 14.66646484 1.35257813 13.4375 1.25 C12.22900391 1.13398437 12.22900391 1.13398437 10.99609375 1.015625 C10.33738281 1.01046875 9.67867187 1.0053125 9 1 Z " fill="#928370" transform="translate(858,519)"/>
<path d="M0 0 C7.59 0 15.18 0 23 0 C23 0.33 23 0.66 23 1 C22.443125 1.06316406 21.88625 1.12632812 21.3125 1.19140625 C10.7417993 2.88771802 5.33501882 10.59417694 -1.20825195 18.36962891 C-5.02299286 22.9007953 -8.96061866 27.29311767 -13 31.625 C-13.53971436 32.20451416 -14.07942871 32.78402832 -14.63549805 33.38110352 C-17.37390244 36.30646206 -20.14557094 39.18674059 -23 42 C-23 39 -23 39 -21.71484375 37.45703125 C-21.12832031 36.91433594 -20.54179688 36.37164062 -19.9375 35.8125 C-17.41641116 33.39708554 -15.02736321 30.95931438 -12.75 28.3125 C-9.25340835 24.25423865 -5.63839355 20.314195 -1.99511719 16.38793945 C4.554679 10.03870211 4.554679 10.03870211 8 2 C5.36 1.67 2.72 1.34 0 1 C0 0.67 0 0.34 0 0 Z " fill="#A79580" transform="translate(563,353)"/>
<path d="M0 0 C4.84624748 1.61541583 7.6998169 3.72467958 10.25 8.1875 C11.65383714 13.45188928 11.65503026 18.17281034 9.8125 23.3125 C7.85952435 26.20829149 5.84648058 27.9997704 3 30 C2.34 29.67 1.68 29.34 1 29 C1.7115625 28.1028125 1.7115625 28.1028125 2.4375 27.1875 C6.23194581 21.87527587 5.44590869 15.25040979 5 9 C3.81978236 5.45984528 3.81978236 5.45984528 2 3 C1.34 2.01 0.68 1.02 0 0 Z " fill="#BEAA92" transform="translate(755,520)"/>
<path d="M0 0 C4.84624748 1.61541583 7.6998169 3.72467958 10.25 8.1875 C11.65383714 13.45188928 11.65503026 18.17281034 9.8125 23.3125 C7.85952435 26.20829149 5.84648058 27.9997704 3 30 C2.34 29.67 1.68 29.34 1 29 C1.7115625 28.1028125 1.7115625 28.1028125 2.4375 27.1875 C6.23194581 21.87527587 5.44590869 15.25040979 5 9 C3.81978236 5.45984528 3.81978236 5.45984528 2 3 C1.34 2.01 0.68 1.02 0 0 Z " fill="#BEAA92" transform="translate(398,520)"/>
<path d="M0 0 C9.24 0 18.48 0 28 0 C28.33 2.64 28.66 5.28 29 8 C28.505 7.21625 28.01 6.4325 27.5 5.625 C24.63828739 2.15129955 24.63828739 2.15129955 17 1 C17 10.57 17 20.14 17 30 C16.67 30 16.34 30 16 30 C16 20.43 16 10.86 16 1 C14.68 1 13.36 1 12 1 C12 10.57 12 20.14 12 30 C11.67 30 11.34 30 11 30 C11 20.43 11 10.86 11 1 C3.14095377 1.99238485 3.14095377 1.99238485 1 6.125 C0.67 7.07375 0.34 8.0225 0 9 C-0.33 9 -0.66 9 -1 9 C-0.67 6.03 -0.34 3.06 0 0 Z " fill="#685D50" transform="translate(346,519)"/>
<path d="M0 0 C1.10665551 3.48892158 0.9732623 6.55079614 0.8125 10.1875 C0.73596883 16.35173786 1.92891319 20.69414912 5 26 C0.57258356 24.64717831 -1.36309221 22.76701112 -4 19 C-6.09327978 14.81344044 -5.56911651 9.54687762 -5 5 C-3.56471306 2.55599742 -2.36284966 1.65399476 0 0 Z " fill="#BCA890" transform="translate(663,524)"/>
<path d="M0 0 C1.10665551 3.48892158 0.9732623 6.55079614 0.8125 10.1875 C0.73596883 16.35173786 1.92891319 20.69414912 5 26 C0.57258356 24.64717831 -1.36309221 22.76701112 -4 19 C-6.09327978 14.81344044 -5.56911651 9.54687762 -5 5 C-3.56471306 2.55599742 -2.36284966 1.65399476 0 0 Z " fill="#BCA890" transform="translate(238,524)"/>
<path d="M0 0 C2.87557703 -0.08138426 5.74882262 -0.14067851 8.625 -0.1875 C9.43324219 -0.21263672 10.24148438 -0.23777344 11.07421875 -0.26367188 C16.16649308 -0.32577278 19.57662316 0.18945441 24 3 C26 5 26 5 26.375 7.875 C26 11 26 11 24.625 13.25 C20.77757281 15.81495146 16.61412328 16.80774486 12 17 C9.6875 16.0390625 9.6875 16.0390625 8 15 C8.61488281 14.96261719 9.22976563 14.92523437 9.86328125 14.88671875 C11.07564453 14.78810547 11.07564453 14.78810547 12.3125 14.6875 C13.11300781 14.62949219 13.91351562 14.57148437 14.73828125 14.51171875 C17.41552336 13.90598694 18.361742 13.17573066 20 11 C20.66666667 8 20.66666667 8 20 5 C16.1079538 1.89931255 13.18618967 1.70965362 8.3125 1.9375 C4.86328125 2.08984375 4.86328125 2.08984375 2 2 C1.34 1.34 0.68 0.68 0 0 Z " fill="#9E8E7A" transform="translate(566,519)"/>
<path d="M0 0 C2.87557703 -0.08138426 5.74882262 -0.14067851 8.625 -0.1875 C9.43324219 -0.21263672 10.24148438 -0.23777344 11.07421875 -0.26367188 C16.16649308 -0.32577278 19.57662316 0.18945441 24 3 C26 5 26 5 26.375 7.875 C25.92056457 11.66196193 24.93500208 12.66926305 22 15 C19.23547967 16.38226016 16.9538637 16.09525387 13.875 16.0625 C12.77929688 16.05347656 11.68359375 16.04445313 10.5546875 16.03515625 C9.71164062 16.02355469 8.86859375 16.01195312 8 16 C8 15.67 8 15.34 8 15 C9.04800781 14.92652344 9.04800781 14.92652344 10.1171875 14.8515625 C11.02726563 14.77679687 11.93734375 14.70203125 12.875 14.625 C13.77992188 14.55539062 14.68484375 14.48578125 15.6171875 14.4140625 C18.17941903 14.20431868 18.17941903 14.20431868 20 12 C20.58342353 8.54230809 20.58342353 8.54230809 20 5 C16.14646762 1.86008473 13.16948987 1.71043434 8.3125 1.9375 C4.86328125 2.08984375 4.86328125 2.08984375 2 2 C1.34 1.34 0.68 0.68 0 0 Z " fill="#9F8E7A" transform="translate(502,519)"/>
<path d="M0 0 C4.75 0.75 4.75 0.75 7 3 C7.4375 5.8125 7.4375 5.8125 7 9 C4.827365 11.57285724 3.02006162 13.48996919 0 15 C-1.87379605 15.07033769 -3.75001102 15.0843022 -5.625 15.0625 C-6.62789062 15.05347656 -7.63078125 15.04445313 -8.6640625 15.03515625 C-9.43492187 15.02355469 -10.20578125 15.01195312 -11 15 C-11 14.67 -11 14.34 -11 14 C-10.28972656 13.86722656 -9.57945312 13.73445312 -8.84765625 13.59765625 C-7.92855469 13.42105469 -7.00945313 13.24445312 -6.0625 13.0625 C-5.14597656 12.88847656 -4.22945312 12.71445312 -3.28515625 12.53515625 C-1.04710156 12.22285012 -1.04710156 12.22285012 0 11 C0.07226502 9.14712498 0.0838122 7.29166122 0.0625 5.4375 C0.05347656 4.42558594 0.04445313 3.41367187 0.03515625 2.37109375 C0.02355469 1.58863281 0.01195312 0.80617188 0 0 Z " fill="#AE9B85" transform="translate(878,536)"/>
<path d="M0 0 C4.37567866 0.45579986 6.23017257 1.09671708 9.140625 4.51171875 C10.5266673 6.47527868 11.88213676 8.46084788 13.203125 10.46875 C14.91737506 13.20303042 14.91737506 13.20303042 18 15 C13.8853081 15.40340117 11.7644606 15.59665217 8.4375 13 C0 2.61538462 0 2.61538462 0 0 Z " fill="#B4A18A" transform="translate(579,536)"/>
<path d="M0 0 C0.66 0.66 1.32 1.32 2 2 C1.89089902 9.21430228 -1.0293603 15.84639197 -6 21 C-10.72309547 24.16636321 -15.40454156 26.0424884 -21 27 C-21 26.67 -21 26.34 -21 26 C-24.3 25.67 -27.6 25.34 -31 25 C-31 24.67 -31 24.34 -31 24 C-30.01 23.97421875 -29.02 23.9484375 -28 23.921875 C-18.82465321 23.57451761 -12.27696024 22.70669888 -5.1875 16.5625 C-1.61889384 11.92090077 -1.02520562 5.6177934 0 0 Z " fill="#9C8C78" transform="translate(498,416)"/>
<path d="M0 0 C4.47915328 -0.02886338 8.95828291 -0.04675187 13.4375 -0.0625 C14.71689453 -0.07087891 15.99628906 -0.07925781 17.31445312 -0.08789062 C19.13686523 -0.09272461 19.13686523 -0.09272461 20.99609375 -0.09765625 C22.12200928 -0.10289307 23.2479248 -0.10812988 24.40795898 -0.11352539 C27 0 27 0 28 1 C28.04063832 2.66617115 28.042721 4.33388095 28 6 C27.566875 5.525625 27.13375 5.05125 26.6875 4.5625 C22.96545524 1.11616226 18.25447113 1.85118796 13.5 1.875 C12.72785156 1.87113281 11.95570313 1.86726562 11.16015625 1.86328125 C7.85496263 1.86900949 5.15622502 1.94792499 2 3 C0.29144978 6.00007271 0.29144978 6.00007271 -1 9 C-2.25541557 5.23375329 -1.37061958 3.62811066 0 0 Z " fill="#8A7B6A" transform="translate(927,519)"/>
<path d="M0 0 C4.47915328 -0.02886338 8.95828291 -0.04675187 13.4375 -0.0625 C14.71689453 -0.07087891 15.99628906 -0.07925781 17.31445312 -0.08789062 C19.13686523 -0.09272461 19.13686523 -0.09272461 20.99609375 -0.09765625 C22.12200928 -0.10289307 23.2479248 -0.10812988 24.40795898 -0.11352539 C27 0 27 0 28 1 C28.04063832 2.66617115 28.042721 4.33388095 28 6 C27.566875 5.525625 27.13375 5.05125 26.6875 4.5625 C22.96545524 1.11616226 18.25447113 1.85118796 13.5 1.875 C12.72785156 1.87113281 11.95570313 1.86726562 11.16015625 1.86328125 C7.85496263 1.86900949 5.15622502 1.94792499 2 3 C0.29144978 6.00007271 0.29144978 6.00007271 -1 9 C-2.25541557 5.23375329 -1.37061958 3.62811066 0 0 Z " fill="#8A7B6A" transform="translate(600,519)"/>
<path d="M0 0 C0.33 0 0.66 0 1 0 C1 4.29 1 8.58 1 13 C4.465 12.505 4.465 12.505 8 12 C8.66 10.35 9.32 8.7 10 7 C10.33 7 10.66 7 11 7 C11 11.62 11 16.24 11 21 C10.67 21 10.34 21 10 21 C9.67 19.02 9.34 17.04 9 15 C6.36 14.67 3.72 14.34 1 14 C1 18.62 1 23.24 1 28 C0.67 28 0.34 28 0 28 C0 18.76 0 9.52 0 0 Z " fill="#746859" transform="translate(836,521)"/>
<path d="M0 0 C0.33 0.99 0.66 1.98 1 3 C-7.58 3 -16.16 3 -25 3 C-25 2.34 -25 1.68 -25 1 C-21.77093849 0.83125405 -18.54173589 0.66537263 -15.3125 0.5 C-14.40048828 0.45230469 -13.48847656 0.40460938 -12.54882812 0.35546875 C-11.66259766 0.31035156 -10.77636719 0.26523437 -9.86328125 0.21875 C-9.05157471 0.17685547 -8.23986816 0.13496094 -7.40356445 0.09179688 C-4.93328996 -0.00254779 -2.47182511 -0.01538879 0 0 Z " fill="#9F8E7A" transform="translate(645,394)"/>
<path d="M0 0 C5.94 0 11.88 0 18 0 C17.01 0.99 16.02 1.98 15 3 C13.79950593 6.10007201 13.79950593 6.10007201 13 9 C10.20127563 6.47211993 8.54226981 4.79588866 8 1 C6.576875 1.309375 6.576875 1.309375 5.125 1.625 C4.09375 1.74875 3.0625 1.8725 2 2 C1.34 1.34 0.68 0.68 0 0 Z " fill="#776B5B" transform="translate(795,519)"/>
<path d="M0 0 C5.94 0 11.88 0 18 0 C17.01 0.99 16.02 1.98 15 3 C13.79950593 6.10007201 13.79950593 6.10007201 13 9 C10.20127563 6.47211993 8.54226981 4.79588866 8 1 C6.576875 1.309375 6.576875 1.309375 5.125 1.625 C4.09375 1.74875 3.0625 1.8725 2 2 C1.34 1.34 0.68 0.68 0 0 Z " fill="#776B5B" transform="translate(109,519)"/>
<path d="M0 0 C6.27 0 12.54 0 19 0 C19 0.66 19 1.32 19 2 C17.329375 2.433125 17.329375 2.433125 15.625 2.875 C11.99708908 3.69241329 11.99708908 3.69241329 10 6 C9.34 5.67 8.68 5.34 8 5 C8 4.34 8 3.68 8 3 C5.36 2.34 2.72 1.68 0 1 C0 0.67 0 0.34 0 0 Z " fill="#B8A58D" transform="translate(490,353)"/>
<path d="M0 0 C3 1 3 1 5 2 C5.33 1.34 5.66 0.68 6 0 C6 3.63 6 7.26 6 11 C4 8 4 8 2.8125 5.375 C1.12150003 2.67508163 1.12150003 2.67508163 -2.375 2 C-6.36219452 2 -7.85442384 2.66328628 -11 5 C-11.99 5.495 -11.99 5.495 -13 6 C-10.32702258 -0.16840944 -6.27576967 -0.63490277 0 0 Z " fill="#958673" transform="translate(902,519)"/>
<path d="M0 0 C6.93 0 13.86 0 21 0 C21.33 1.65 21.66 3.3 22 5 C20.7625 4.2884375 20.7625 4.2884375 19.5 3.5625 C15.47204099 1.76430401 12.36826421 1.3765745 8 1 C8 5.62 8 10.24 8 15 C7.67 15 7.34 15 7 15 C7 10.38 7 5.76 7 1 C4.69 1 2.38 1 0 1 C0 0.67 0 0.34 0 0 Z " fill="#837565" transform="translate(631,519)"/>
<path d="M0 0 C7.59 0 15.18 0 23 0 C23 0.33 23 0.66 23 1 C22.40832031 1.12117188 21.81664062 1.24234375 21.20703125 1.3671875 C16.96196415 2.26744643 12.97560339 3.20456621 9 5 C8.67 4.34 8.34 3.68 8 3 C6.11235097 2.31527335 6.11235097 2.31527335 3.9375 1.875 C3.20402344 1.70742188 2.47054687 1.53984375 1.71484375 1.3671875 C1.14894531 1.24601562 0.58304688 1.12484375 0 1 C0 0.67 0 0.34 0 0 Z " fill="#C4AF96" transform="translate(563,353)"/>
<path d="M0 0 C1.93408178 3.86816357 -0.86563594 9.09778764 -2 13 C-6.62 13 -11.24 13 -16 13 C-16 12.67 -16 12.34 -16 12 C-15.31292969 11.89042969 -14.62585938 11.78085937 -13.91796875 11.66796875 C-13.01691406 11.50941406 -12.11585938 11.35085938 -11.1875 11.1875 C-10.29417969 11.03667969 -9.40085937 10.88585937 -8.48046875 10.73046875 C-5.74108658 9.92375306 -4.72919266 9.23529782 -3 7 C-2.02284391 5.19809386 -2.02284391 5.19809386 -1.3125 3.3125 C-0.879375 2.219375 -0.44625 1.12625 0 0 Z " fill="#9D8C78" transform="translate(718,538)"/>
<path d="M0 0 C1.93408178 3.86816357 -0.86563594 9.09778764 -2 13 C-6.62 13 -11.24 13 -16 13 C-16 12.67 -16 12.34 -16 12 C-15.31292969 11.89042969 -14.62585938 11.78085937 -13.91796875 11.66796875 C-13.01691406 11.50941406 -12.11585938 11.35085938 -11.1875 11.1875 C-10.29417969 11.03667969 -9.40085937 10.88585937 -8.48046875 10.73046875 C-5.74108658 9.92375306 -4.72919266 9.23529782 -3 7 C-2.02284391 5.19809386 -2.02284391 5.19809386 -1.3125 3.3125 C-0.879375 2.219375 -0.44625 1.12625 0 0 Z " fill="#9D8C79" transform="translate(330,538)"/>
<path d="M0 0 C1.52864816 4.58594448 -0.37436606 7.51325033 -2 12 C-6.62 12 -11.24 12 -16 12 C-16 11.67 -16 11.34 -16 11 C-15.40832031 10.98582031 -14.81664062 10.97164062 -14.20703125 10.95703125 C-9.89023098 10.69647397 -7.57684066 10.4418354 -4.0625 7.75 C-2.13880443 5.18507257 -0.95689792 3.04467519 0 0 Z " fill="#A4937E" transform="translate(854,539)"/>
<path d="M0 0 C1.52864816 4.58594448 -0.37436606 7.51325033 -2 12 C-6.62 12 -11.24 12 -16 12 C-16 11.67 -16 11.34 -16 11 C-15.40832031 10.98582031 -14.81664062 10.97164062 -14.20703125 10.95703125 C-9.89023098 10.69647397 -7.57684066 10.4418354 -4.0625 7.75 C-2.13880443 5.18507257 -0.95689792 3.04467519 0 0 Z " fill="#A4937E" transform="translate(197,539)"/>
<path d="M0 0 C1.45606519 4.52092968 0.27032841 7.51648796 -1 12 C-5.62 12 -10.24 12 -15 12 C-15 11.67 -15 11.34 -15 11 C-13.96939453 10.85304688 -13.96939453 10.85304688 -12.91796875 10.703125 C-12.01691406 10.55359375 -11.11585938 10.4040625 -10.1875 10.25 C-9.29417969 10.11078125 -8.40085937 9.9715625 -7.48046875 9.828125 C-4.4447135 8.81461301 -3.61866335 7.71126111 -2 5 C-1.28837557 3.35202764 -0.60968047 1.68834592 0 0 Z " fill="#A4927E" transform="translate(983,539)"/>
<path d="M0 0 C0.33 0 0.66 0 1 0 C1.268125 1.258125 1.53625 2.51625 1.8125 3.8125 C2.83952017 8.12304967 2.83952017 8.12304967 6 11 C8.65533766 11.82552082 11.27298538 12.41883295 14 13 C14 13.33 14 13.66 14 14 C7.07 13.505 7.07 13.505 0 13 C0 8.71 0 4.42 0 0 Z " fill="#988875" transform="translate(889,538)"/>
<path d="M0 0 C1.45606519 4.52092968 0.27032841 7.51648796 -1 12 C-5.62 12 -10.24 12 -15 12 C-15 11.67 -15 11.34 -15 11 C-13.96939453 10.85304688 -13.96939453 10.85304688 -12.91796875 10.703125 C-12.01691406 10.55359375 -11.11585938 10.4040625 -10.1875 10.25 C-9.29417969 10.11078125 -8.40085938 9.9715625 -7.48046875 9.828125 C-4.4447135 8.81461301 -3.61866335 7.71126111 -2 5 C-1.28837557 3.35202764 -0.60968047 1.68834592 0 0 Z " fill="#A4927E" transform="translate(168,539)"/>
<path d="M0 0 C0 3.3 0 6.6 0 10 C-0.33 10 -0.66 10 -1 10 C-1.2475 8.88625 -1.495 7.7725 -1.75 6.625 C-2.65055702 3.08502869 -2.65055702 3.08502869 -4.625 1.5 C-8.24911259 0.73702893 -11.35475653 1.39245942 -15 2 C-15.33 1.34 -15.66 0.68 -16 0 C-11.40456709 -2.29771645 -4.82752346 -1.24581251 0 0 Z " fill="#A3927D" transform="translate(226,520)"/>
<path d="M0 0 C7.26 0 14.52 0 22 0 C22.66 1.32 23.32 2.64 24 4 C23.67 4.99 23.34 5.98 23 7 C22.731875 6.360625 22.46375 5.72125 22.1875 5.0625 C21.11332248 2.66868314 21.11332248 2.66868314 18 2 C16.43813059 1.95561295 14.87450734 1.96076591 13.3125 2 C8.76887281 2.05337594 4.49168768 1.66543521 0 1 C0 0.67 0 0.34 0 0 Z " fill="#7E7161" transform="translate(829,519)"/>
<path d="M0 0 C7.59 0 15.18 0 23 0 C23.33 1.98 23.66 3.96 24 6 C23.35417969 5.34257813 22.70835937 4.68515625 22.04296875 4.0078125 C17.96681658 1.31828462 15.05948729 1.60926534 10.3125 1.875 C7.5239966 2.00079715 4.79557841 2.04089665 2 2 C1.34 1.34 0.68 0.68 0 0 Z " fill="#7F7261" transform="translate(304,519)"/>
<path d="M0 0 C-0.33 0.66 -0.66 1.32 -1 2 C-2.6396875 1.9071875 -2.6396875 1.9071875 -4.3125 1.8125 C-7.88841744 1.64732935 -7.88841744 1.64732935 -9.8125 3.375 C-10.204375 3.91125 -10.59625 4.4475 -11 5 C-11.66 5.66 -12.32 6.32 -13 7 C-13.66 7 -14.32 7 -15 7 C-15.99 7.495 -15.99 7.495 -17 8 C-14.16620553 0.06537548 -7.32659771 -0.58612782 0 0 Z " fill="#958673" transform="translate(677,519)"/>
<path d="M0 0 C-0.33 0.66 -0.66 1.32 -1 2 C-2.6396875 1.9071875 -2.6396875 1.9071875 -4.3125 1.8125 C-7.88841744 1.64732935 -7.88841744 1.64732935 -9.8125 3.375 C-10.204375 3.91125 -10.59625 4.4475 -11 5 C-11.66 5.66 -12.32 6.32 -13 7 C-13.66 7 -14.32 7 -15 7 C-15.99 7.495 -15.99 7.495 -17 8 C-14.16620553 0.06537548 -7.32659771 -0.58612782 0 0 Z " fill="#958673" transform="translate(252,519)"/>
<path d="M0 0 C7.26 0 14.52 0 22 0 C22.33 1.32 22.66 2.64 23 4 C22.17242188 3.50693359 22.17242188 3.50693359 21.328125 3.00390625 C18.58806542 1.82237049 16.72017151 1.83142245 13.75 1.9375 C9.03886071 2.03235515 4.65521134 1.70267341 0 1 C0 0.67 0 0.34 0 0 Z " fill="#857766" transform="translate(958,519)"/>
<path d="M0 0 C7.26 0 14.52 0 22 0 C22.33 1.32 22.66 2.64 23 4 C22.17242187 3.50693359 22.17242187 3.50693359 21.328125 3.00390625 C18.58806542 1.82237049 16.72017151 1.83142245 13.75 1.9375 C9.03886071 2.03235515 4.65521134 1.70267341 0 1 C0 0.67 0 0.34 0 0 Z " fill="#857766" transform="translate(143,519)"/>
<path d="M0 0 C0.99 0.33 1.98 0.66 3 1 C-1 5 -5 9 -9 13 C-9 10 -9 10 -7.5390625 8.28125 C-6.59160156 7.39953125 -6.59160156 7.39953125 -5.625 6.5 C-3.34958199 4.36503989 -1.75252437 2.62878656 0 0 Z " fill="#9E8D79" transform="translate(549,382)"/>
<path d="M0 0 C-0.33 0.66 -0.66 1.32 -1 2 C-2.5778125 1.87625 -2.5778125 1.87625 -4.1875 1.75 C-8.62746755 2.04114541 -9.79905614 3.05859213 -13 6 C-14.31138904 6.70885894 -15.63777017 7.39456452 -17 8 C-14.16620553 0.06537548 -7.32659771 -0.58612782 0 0 Z " fill="#9D8D79" transform="translate(755,519)"/>
<path d="M0 0 C-0.33 0.66 -0.66 1.32 -1 2 C-2.5778125 1.87625 -2.5778125 1.87625 -4.1875 1.75 C-8.62746755 2.04114541 -9.79905614 3.05859213 -13 6 C-14.31138904 6.70885894 -15.63777017 7.39456452 -17 8 C-14.16620553 0.06537548 -7.32659771 -0.58612782 0 0 Z " fill="#9D8D79" transform="translate(398,519)"/>
<path d="M0 0 C2.31 0 4.62 0 7 0 C6.566875 0.495 6.13375 0.99 5.6875 1.5 C3.43618332 4.83528397 2.328939 8.20303142 1 12 C-0.31223496 8.06329512 0.75703744 5.87511856 2 2 C1.34 1.34 0.68 0.68 0 0 Z " fill="#6D6254" transform="translate(820,519)"/>
<path d="M0 0 C2.31 0 4.62 0 7 0 C6.566875 0.495 6.13375 0.99 5.6875 1.5 C3.43618332 4.83528397 2.328939 8.20303142 1 12 C-0.31223496 8.06329512 0.75703744 5.87511856 2 2 C1.34 1.34 0.68 0.68 0 0 Z " fill="#6D6254" transform="translate(134,519)"/>
<path d="M0 0 C0.33 0 0.66 0 1 0 C1 3.3 1 6.6 1 10 C0.34 9.34 -0.32 8.68 -1 8 C-3.65537372 7.43479997 -6.29144713 7.26211802 -9 7 C-9 6.67 -9 6.34 -9 6 C-6.36 5.67 -3.72 5.34 -1 5 C-0.67 3.35 -0.34 1.7 0 0 Z " fill="#9F8E7A" transform="translate(975,528)"/>
<path d="M0 0 C0.33 0 0.66 0 1 0 C1 3.3 1 6.6 1 10 C0.34 9.34 -0.32 8.68 -1 8 C-3.65537372 7.43479997 -6.29144713 7.26211802 -9 7 C-9 6.67 -9 6.34 -9 6 C-6.36 5.67 -3.72 5.34 -1 5 C-0.67 3.35 -0.34 1.7 0 0 Z " fill="#9F8E7A" transform="translate(160,528)"/>
<path d="M0 0 C1.32 0 2.64 0 4 0 C3.67 2.31 3.34 4.62 3 7 C1.5 5.75 1.5 5.75 0 4 C0 2.68 0 1.36 0 0 Z " fill="#0D0B0A" transform="translate(804,520)"/>
<path d="M0 0 C1.32 0 2.64 0 4 0 C3.67 2.31 3.34 4.62 3 7 C1.5 5.75 1.5 5.75 0 4 C0 2.68 0 1.36 0 0 Z " fill="#0D0B0A" transform="translate(118,520)"/>
<path d="M0 0 C1.32 1.65 2.64 3.3 4 5 C3.34 5.66 2.68 6.32 2 7 C1.01 6.01 0.02 5.02 -1 4 C-2.98 4.99 -2.98 4.99 -5 6 C-3.35 4.02 -1.7 2.04 0 0 Z " fill="#B3A08A" transform="translate(539,394)"/>
<path d="M0 0 C0.33 0 0.66 0 1 0 C1 1.98 1 3.96 1 6 C-2.3 5.34 -5.6 4.68 -9 4 C-9 3.67 -9 3.34 -9 3 C-5.92382812 2.70703125 -5.92382812 2.70703125 -2.84765625 2.4140625 C-2.23792969 2.27742187 -1.62820313 2.14078125 -1 2 C-0.67 1.34 -0.34 0.68 0 0 Z " fill="#A69480" transform="translate(648,531)"/>
<path d="M0 0 C1.98 0.495 1.98 0.495 4 1 C3.54625 1.598125 3.0925 2.19625 2.625 2.8125 C1.36704087 4.50590652 0.17015276 6.24477086 -1 8 C-1.125 2.25 -1.125 2.25 0 0 Z " fill="#968673" transform="translate(346,520)"/>
</svg>
